<?xml version="1.0" standalone="no"?>
<!DOCTYPE svg PUBLIC "-//W3C//DTD SVG 20010904//EN"
 "http://www.w3.org/TR/2001/REC-SVG-20010904/DTD/svg10.dtd">
<svg version="1.0" xmlns="http://www.w3.org/2000/svg"
 width="260.000000pt" height="260.000000pt" viewBox="0 0 260.000000 260.000000"
 preserveAspectRatio="xMidYMid meet">
<metadata>
Created by potrace 1.11, written by Peter Selinger 2001-2013
</metadata>
<g transform="translate(0.000000,260.000000) scale(0.100000,-0.100000)"
fill="#000000" stroke="none">
<path d="M1220 2449 c0 -5 -4 -8 -9 -4 -16 9 -23 -13 -10 -36 9 -17 8 -20 -3
-17 -7 3 -22 2 -34 -2 -15 -6 -24 -3 -32 11 -11 18 -11 18 8 7 16 -10 22 -10
32 1 11 12 10 13 -4 8 -11 -4 -17 -2 -15 5 1 7 -18 11 -50 12 -29 1 -53 -2
-53 -5 0 -3 -26 -7 -57 -8 -57 -2 -113 -19 -113 -34 0 -4 -21 -17 -47 -28 -97
-43 -132 -65 -167 -107 -20 -24 -36 -53 -36 -63 0 -18 2 -19 30 -4 17 9 30 13
30 10 0 -3 10 1 23 10 21 13 23 13 24 -5 1 -12 -4 -20 -13 -20 -8 0 -17 -7
-20 -15 -4 -8 -10 -13 -14 -10 -4 3 -14 -3 -21 -12 -8 -9 -9 -14 -3 -10 7 4
14 1 17 -7 4 -9 -4 -13 -25 -14 -35 -1 -69 -28 -61 -48 3 -8 9 -11 14 -8 14 8
11 -8 -11 -48 -15 -29 -18 -45 -11 -80 4 -24 12 -42 17 -41 5 0 10 -24 11 -54
2 -82 12 -123 28 -123 8 0 15 -9 15 -19 0 -11 4 -22 9 -26 14 -8 21 25 13 60
-3 17 -6 82 -6 145 -1 108 1 119 31 184 38 84 77 134 106 134 12 0 49 3 82 7
33 4 65 7 72 8 7 0 15 7 17 14 3 8 10 11 16 8 5 -3 10 -1 10 5 0 6 5 8 12 4 7
-5 9 -2 5 9 -3 8 1 21 9 27 11 10 14 10 14 -1 1 -10 4 -9 14 3 7 10 16 15 19
11 4 -3 7 -2 7 4 0 17 34 10 59 -13 21 -20 34 -22 115 -22 50 0 105 -1 123 -1
25 -1 47 -15 98 -62 36 -35 68 -73 71 -88 3 -14 12 -39 19 -56 8 -16 24 -61
35 -100 31 -99 73 -205 82 -205 4 0 9 8 9 18 1 9 3 32 5 50 1 18 8 40 15 48
18 22 16 184 -3 184 -5 0 -6 12 -4 26 5 26 -34 113 -81 182 -12 19 -21 38 -18
42 8 12 -52 63 -66 55 -7 -5 -10 -4 -6 2 12 19 -102 63 -164 63 -21 0 -64 11
-95 25 -65 29 -64 28 -64 14z m6 -81 c3 -5 4 -12 1 -14 -6 -6 -47 18 -47 27 0
10 39 -1 46 -13z m-442 -83 c3 -10 -1 -15 -12 -16 -14 0 -14 -2 3 -9 11 -5 16
-10 10 -11 -20 -4 -85 -4 -85 1 0 8 55 49 66 50 7 0 14 -7 18 -15z m-137 -547
c-3 -7 -5 -2 -5 12 0 14 2 19 5 13 2 -7 2 -19 0 -25z"/>
<path d="M485 2030 c3 -5 8 -10 11 -10 2 0 4 5 4 10 0 6 -5 10 -11 10 -5 0 -7
-4 -4 -10z"/>
<path d="M1309 1837 c-14 -7 -33 -18 -43 -26 -19 -16 -22 -36 -3 -24 6 4 20 9
30 10 23 4 67 33 67 44 0 12 -19 10 -51 -4z"/>
<path d="M1310 1770 c-34 -8 -74 -45 -65 -60 4 -7 61 4 146 28 20 5 48 7 63 5
29 -6 36 11 9 22 -27 11 -113 14 -153 5z"/>
<path d="M895 1760 c-4 -6 5 -10 19 -10 14 0 29 0 33 -1 4 0 9 4 11 10 5 14
-55 15 -63 1z"/>
<path d="M926 1690 c-21 -11 -44 -24 -52 -31 -8 -6 -14 -8 -14 -3 0 5 -5 1
-11 -9 -13 -22 -5 -34 13 -20 12 10 77 23 140 29 58 5 64 29 11 43 -47 13 -40
14 -87 -9z"/>
<path d="M1711 1680 c0 -8 4 -24 9 -35 l9 -20 0 20 c0 11 -4 27 -9 35 -9 13
-10 13 -9 0z"/>
<path d="M1233 1503 c-24 -9 -13 -28 17 -30 28 -2 28 -1 12 17 -9 11 -17 20
-17 19 0 0 -6 -3 -12 -6z"/>
<path d="M1097 1461 c-3 -14 -1 -18 9 -14 16 6 18 19 5 27 -5 3 -11 -3 -14
-13z"/>
<path d="M1370 1348 c-19 -5 -89 -22 -155 -38 -136 -33 -84 -30 73 5 57 12
108 27 115 34 6 6 9 10 7 10 -3 -1 -21 -6 -40 -11z"/>
<path d="M1058 1273 c6 -2 18 -2 25 0 6 3 1 5 -13 5 -14 0 -19 -2 -12 -5z"/>
<path d="M1800 1244 c0 -5 5 -27 11 -49 19 -68 -15 -216 -110 -475 -17 -47
-45 -139 -62 -205 -18 -66 -38 -125 -46 -131 -7 -6 -11 -18 -8 -27 6 -14 -5
-77 -46 -259 -10 -48 -19 -90 -19 -93 0 -3 243 -5 540 -5 l540 0 0 435 c0 249
-4 435 -9 435 -5 0 -12 7 -15 16 -6 15 -4 15 10 3 14 -11 16 -10 12 11 -2 21
-9 25 -39 26 -20 1 -41 4 -47 8 -6 3 -12 1 -14 -6 -2 -6 -13 -12 -24 -14 -18
-3 -18 -2 -1 10 16 13 15 14 -10 19 -33 6 -91 -2 -99 -14 -7 -12 -46 -11 -64
2 -13 9 -13 10 1 6 9 -3 22 0 28 6 8 8 11 7 11 -2 0 -8 11 -2 25 13 25 27 36
51 13 28 -15 -15 -31 -16 -22 0 4 6 3 8 -4 4 -6 -3 -17 0 -25 8 -22 22 -115
47 -121 33 -3 -8 -5 -8 -5 1 -1 7 -5 10 -11 7 -5 -3 -10 -1 -10 5 0 7 -7 10
-15 6 -8 -3 -15 -2 -15 3 0 4 -26 16 -57 25 -32 10 -85 31 -119 47 -71 34 -94
38 -45 8 18 -11 31 -22 28 -25 -11 -11 -75 39 -101 81 -30 46 -56 74 -56 59z
m278 -189 c-3 -3 -9 2 -12 12 -6 14 -5 15 5 6 7 -7 10 -15 7 -18z m227 -75 c3
-5 1 -10 -4 -10 -6 0 -11 5 -11 10 0 6 2 10 4 10 3 0 8 -4 11 -10z m255 -100
c12 -8 11 -10 -7 -10 -13 0 -23 5 -23 10 0 13 11 13 30 0z"/>
<path d="M925 788 c-44 -27 -101 -67 -127 -90 -61 -54 -70 -59 -93 -51 -18 5
-18 4 -6 -11 8 -9 10 -20 6 -24 -4 -4 -10 -1 -12 6 -8 21 -26 14 -73 -28 -42
-38 -66 -47 -40 -15 7 9 8 15 2 15 -34 0 -91 -116 -118 -240 -17 -79 -35 -297
-27 -328 4 -18 12 -22 49 -22 46 0 45 -1 48 58 1 9 4 20 9 23 4 3 8 22 9 42 1
22 5 34 12 31 6 -3 3 1 -6 9 -22 18 -23 25 -1 23 12 -1 20 11 27 41 6 23 14
45 19 49 4 4 7 18 7 30 0 12 6 29 13 36 8 7 12 18 10 24 -2 6 3 17 11 23 13
11 14 7 9 -26 -3 -21 -13 -63 -23 -93 -10 -30 -24 -75 -31 -100 -7 -25 -20
-61 -29 -80 -10 -19 -20 -47 -24 -62 l-6 -28 144 0 c129 0 145 2 149 18 4 16
5 16 6 0 1 -14 10 -18 45 -18 l45 0 5 43 c40 305 53 452 49 544 -3 64 -9 100
-15 97 -6 -4 -3 4 5 17 13 21 42 129 35 134 -2 0 -39 -21 -83 -47z m-241 -229
c-23 -25 -26 -49 -8 -49 9 0 12 -5 9 -11 -4 -6 -13 -8 -20 -5 -20 7 -80 -124
-100 -222 -4 -18 -10 -30 -15 -27 -13 8 27 141 71 232 21 44 39 86 39 91 0 12
21 21 33 15 5 -3 0 -14 -9 -24z m246 -19 c-17 -32 -22 -18 -8 21 8 22 13 28
16 17 2 -9 -2 -27 -8 -38z m-10 -39 c0 -5 -9 -19 -20 -32 l-19 -24 12 33 c10
30 27 44 27 23z m-254 -48 c-4 -9 -1 -22 5 -29 12 -15 1 -19 -16 -6 -14 10
-17 32 -4 32 6 0 8 7 5 16 -3 9 -2 12 5 9 6 -4 8 -14 5 -22z"/>
<path d="M1041 723 c10 -60 44 -186 54 -204 26 -45 98 -139 103 -135 3 3 -2
14 -10 23 -9 10 -23 38 -31 63 -8 25 -29 74 -46 110 -17 36 -31 70 -31 76 0
22 -31 114 -39 114 -4 0 -4 -21 0 -47z"/>
<path d="M450 716 c0 -8 5 -18 10 -21 6 -3 10 1 10 9 0 8 -4 18 -10 21 -5 3
-10 -1 -10 -9z"/>
<path d="M1105 463 c4 -10 14 -38 22 -63 9 -25 19 -49 24 -54 11 -12 -15 84
-30 112 -14 26 -26 30 -16 5z"/>
<path d="M1470 379 c0 -5 5 -7 10 -4 6 3 10 8 10 11 0 2 -4 4 -10 4 -5 0 -10
-5 -10 -11z"/>
<path d="M1027 354 c-10 -11 -8 -44 2 -44 6 0 13 4 16 10 8 12 -9 43 -18 34z"/>
</g>
</svg>
